<?xml version="1.0" encoding="UTF-8" standalone="no"?>
<!-- Created with Inkscape (http://www.inkscape.org/) -->

<svg
   xmlns:dc="http://purl.org/dc/elements/1.1/"
   xmlns:cc="http://creativecommons.org/ns#"
   xmlns:rdf="http://www.w3.org/1999/02/22-rdf-syntax-ns#"
   xmlns:svg="http://www.w3.org/2000/svg"
   xmlns="http://www.w3.org/2000/svg"
   xmlns:sodipodi="http://sodipodi.sourceforge.net/DTD/sodipodi-0.dtd"
   xmlns:inkscape="http://www.inkscape.org/namespaces/inkscape"
   width="744.09448819"
   height="1052.3622047"
   id="svg3448"
   version="1.1"
   inkscape:version="0.48.3.1 r9886"
   sodipodi:docname="logotipo-gres-abreviado.svg"
   inkscape:export-filename="/var/www/wesb_2013/novo/images/logotipo-gres_abrv.png"
   inkscape:export-xdpi="70.050003"
   inkscape:export-ydpi="70.050003">
  <defs
     id="defs3450">
    <inkscape:perspective
       sodipodi:type="inkscape:persp3d"
       inkscape:vp_x="0 : 526.18109 : 1"
       inkscape:vp_y="0 : 1000 : 0"
       inkscape:vp_z="744.09448 : 526.18109 : 1"
       inkscape:persp3d-origin="372.04724 : 350.78739 : 1"
       id="perspective3456" />
    <inkscape:perspective
       id="perspective3430"
       inkscape:persp3d-origin="0.5 : 0.33333333 : 1"
       inkscape:vp_z="1 : 0.5 : 1"
       inkscape:vp_y="0 : 1000 : 0"
       inkscape:vp_x="0 : 0.5 : 1"
       sodipodi:type="inkscape:persp3d" />
    <inkscape:perspective
       id="perspective3758"
       inkscape:persp3d-origin="0.5 : 0.33333333 : 1"
       inkscape:vp_z="1 : 0.5 : 1"
       inkscape:vp_y="0 : 1000 : 0"
       inkscape:vp_x="0 : 0.5 : 1"
       sodipodi:type="inkscape:persp3d" />
    <inkscape:perspective
       id="perspective4029"
       inkscape:persp3d-origin="0.5 : 0.33333333 : 1"
       inkscape:vp_z="1 : 0.5 : 1"
       inkscape:vp_y="0 : 1000 : 0"
       inkscape:vp_x="0 : 0.5 : 1"
       sodipodi:type="inkscape:persp3d" />
  </defs>
  <sodipodi:namedview
     id="base"
     pagecolor="#ffffff"
     bordercolor="#666666"
     borderopacity="1.0"
     inkscape:pageopacity="0.0"
     inkscape:pageshadow="2"
     inkscape:zoom="0.7997123"
     inkscape:cx="388.15"
     inkscape:cy="563.5719"
     inkscape:document-units="px"
     inkscape:current-layer="layer1"
     showgrid="false"
     inkscape:window-width="1317"
     inkscape:window-height="744"
     inkscape:window-x="49"
     inkscape:window-y="792"
     inkscape:window-maximized="1" />
  <metadata
     id="metadata3453">
    <rdf:RDF>
      <cc:Work
         rdf:about="">
        <dc:format>image/svg+xml</dc:format>
        <dc:type
           rdf:resource="http://purl.org/dc/dcmitype/StillImage" />
        <dc:title></dc:title>
      </cc:Work>
    </rdf:RDF>
  </metadata>
  <g
     inkscape:label="Layer 1"
     inkscape:groupmode="layer"
     id="layer1">
    <rect
       style="fill:#ffffff;fill-opacity:1;stroke:none"
       id="rect3650"
       width="322.90979"
       height="250.08995"
       x="194.3365"
       y="376.75232" />
    <path
       transform="matrix(0.45552872,0.03399326,-0.02548219,0.42144318,-91.08078,456.46432)"
       d="M 923.95669,116.17126 C 860.6254,138.52348 922.37858,230.16903 856.35597,217.86098 790.33336,205.55292 880.96032,142.31435 829.93709,98.643958 778.91386,54.973564 730.42308,154.27617 708.07086,90.944881 685.71864,27.613598 785.79833,74.479562 798.10639,8.456953 c 12.30805,-66.022611 -97.93592,-58.365564 -54.26553,-109.388793 43.67039,-51.02323 53.12312,59.081305 116.45441,36.729088 63.33128,-22.352217 1.5781,-113.997768 67.60071,-101.689718 66.02261,12.30805 -24.60435,75.546626 26.41888,119.217018 51.02324,43.6703936 99.51404,-55.632208 121.86624,7.699077 22.3522,63.331283 -77.72748,16.465319 -90.03553,82.487928 -12.30806,66.022607 97.93593,58.365567 54.26553,109.388797 -43.6704,51.02323 -53.12313,-59.081309 -116.45441,-36.72909 z"
       inkscape:randomized="0"
       inkscape:rounded="0.55"
       inkscape:flatsided="false"
       sodipodi:arg2="1.7551025"
       sodipodi:arg1="1.2315037"
       sodipodi:r2="195.1824"
       sodipodi:r1="95.639374"
       sodipodi:cy="25.984253"
       sodipodi:cx="892.12598"
       sodipodi:sides="6"
       id="path3398"
       style="fill:#008000;fill-opacity:1;stroke:none"
       sodipodi:type="star" />
    <path
       transform="matrix(0.6836231,0.10766218,-0.10766218,0.6836231,-373.68557,196.67866)"
       d="m 1076.181,275 a 25.984251,25.984251 0 1 1 -51.9685,0 25.984251,25.984251 0 1 1 51.9685,0 z"
       sodipodi:ry="25.984251"
       sodipodi:rx="25.984251"
       sodipodi:cy="275"
       sodipodi:cx="1050.1968"
       id="path3400"
       style="fill:#ffffff;fill-opacity:1;stroke:none"
       sodipodi:type="arc" />
    <path
       sodipodi:type="star"
       style="fill:#ff6600;fill-opacity:1;stroke:none"
       id="path3402"
       sodipodi:sides="6"
       sodipodi:cx="892.12598"
       sodipodi:cy="25.984253"
       sodipodi:r1="78.07296"
       sodipodi:r2="195.1824"
       sodipodi:arg1="1.2315037"
       sodipodi:arg2="1.7551025"
       inkscape:flatsided="false"
       inkscape:rounded="0.55"
       inkscape:randomized="2.6020852e-18"
       d="M 918.11023,99.606299 C 848.91876,124.02682 928.4878,231.30792 856.35597,217.86098 784.22414,204.41403 897.10407,133.00961 841.35954,85.298299 785.61501,37.586985 732.49138,160.13635 708.07086,90.944881 683.65034,21.753411 801.92834,83.808083 815.37529,11.676253 828.82223,-60.45558 696.12955,-45.187316 743.84086,-100.93184 c 47.71131,-55.74453 53.10939,77.714565 122.30086,53.294047 69.19148,-24.420519 -10.37757,-131.701627 61.75426,-118.254677 72.13182,13.44694 -40.74809,84.851364 14.99643,132.562677 55.74453,47.711313 108.86819,-74.838057 133.28869,-5.646582 24.4205,69.19147 -93.85749,7.136797 -107.30443,79.268628 -13.44695,72.131837 119.24573,56.863569 71.53443,112.608097 -47.71132,55.74452 -53.1094,-77.714569 -122.30087,-53.294051 z"
       transform="matrix(0.35320394,0.0572693,-0.05410269,0.3694946,108.84668,390.09924)" />
    <path
       sodipodi:type="arc"
       style="fill:#ffffff;fill-opacity:1;stroke:none"
       id="path3404"
       sodipodi:cx="1050.1968"
       sodipodi:cy="275"
       sodipodi:rx="25.984251"
       sodipodi:ry="25.984251"
       d="m 1076.181,275 a 25.984251,25.984251 0 1 1 -51.9685,0 25.984251,25.984251 0 1 1 51.9685,0 z"
       transform="matrix(0.45697136,-0.00893126,0.00893126,0.45697136,-59.822675,334.50417)" />
    <path
       transform="matrix(0.07806446,0.21818625,-0.22643192,0.08495808,403.9544,334.74861)"
       d="M 918.11023,99.606299 C 848.91876,124.02682 928.4878,231.30792 856.35597,217.86098 784.22414,204.41403 897.10407,133.00961 841.35954,85.298299 785.61501,37.586985 732.49138,160.13635 708.07086,90.944881 683.65034,21.753411 801.92834,83.808083 815.37529,11.676253 828.82223,-60.45558 696.12955,-45.187316 743.84086,-100.93184 c 47.71131,-55.74453 53.10939,77.714565 122.30086,53.294047 69.19148,-24.420519 -10.37757,-131.701627 61.75426,-118.254677 72.13182,13.44694 -40.74809,84.851364 14.99643,132.562677 55.74453,47.711313 108.86819,-74.838057 133.28869,-5.646582 24.4205,69.19147 -93.85749,7.136797 -107.30443,79.268628 -13.44695,72.131837 119.24573,56.863569 71.53443,112.608097 -47.71132,55.74452 -53.1094,-77.714569 -122.30087,-53.294051 z"
       inkscape:randomized="2.6020852e-18"
       inkscape:rounded="0.55"
       inkscape:flatsided="false"
       sodipodi:arg2="1.7551025"
       sodipodi:arg1="1.2315037"
       sodipodi:r2="195.1824"
       sodipodi:r1="78.07296"
       sodipodi:cy="25.984253"
       sodipodi:cx="892.12598"
       sodipodi:sides="6"
       id="path3406"
       style="fill:#0000ff;fill-opacity:1;stroke:none"
       sodipodi:type="star" />
    <path
       transform="matrix(0.1614691,0.27949014,-0.27949014,0.1614691,374.99954,193.68215)"
       d="m 1076.181,275 a 25.984251,25.984251 0 1 1 -51.9685,0 25.984251,25.984251 0 1 1 51.9685,0 z"
       sodipodi:ry="25.984251"
       sodipodi:rx="25.984251"
       sodipodi:cy="275"
       sodipodi:cx="1050.1968"
       id="path3408"
       style="fill:#ffffff;fill-opacity:1;stroke:none"
       sodipodi:type="arc" />
    <rect
       ry="0"
       rx="0"
       y="589.05365"
       x="200.76923"
       height="8.1413698"
       width="221.48909"
       id="rect3390"
       style="fill:#0000ff;fill-opacity:1;stroke:none" />
    <text
       sodipodi:linespacing="69.999999%"
       id="text3392"
       y="623.99451"
       x="471.04089"
       style="font-size:68.16000366px;font-style:normal;font-variant:normal;font-weight:normal;font-stretch:normal;text-align:center;line-height:69.99999881%;writing-mode:lr-tb;text-anchor:middle;fill:#000000;fill-opacity:1;stroke:none;font-family:Bocuma Angle BRK;-inkscape-font-specification:Bocuma Angle BRK"
       xml:space="preserve"><tspan
         id="tspan3396"
         y="623.99451"
         x="471.04089"
         sodipodi:role="line">GrES</tspan></text>
    <text
       xml:space="preserve"
       style="font-size:27.33385277px;font-style:normal;font-weight:bold;fill:#000000;fill-opacity:1;stroke:none;font-family:Bitstream Vera Sans;-inkscape-font-specification:'10.15 Saturday Night BRK Bold'"
       x="190.98366"
       y="618.20667"
       id="text3410"
       transform="matrix(0.98276657,-0.02128941,0.02057096,1.01709,0,0)"><tspan
         sodipodi:role="line"
         id="tspan3412"
         x="190.98366"
         y="618.20667"><tspan
   style="font-weight:bold;fill:#000000;-inkscape-font-specification:'10.15 Saturday Night BRK Bold'"
   id="tspan3414">UF</tspan>PR</tspan></text>
  </g>
</svg>
